<?xml version="1.0" encoding="utf-8"?>
<!-- Generator: Adobe Illustrator 22.1.0, SVG Export Plug-In . SVG Version: 6.00 Build 0)  -->
<svg version="1.1" id="Calque_1" xmlns="http://www.w3.org/2000/svg" xmlns:xlink="http://www.w3.org/1999/xlink" x="0px" y="0px"
	 viewBox="0 0 177 177.2" style="enable-background:new 0 0 177 177.2;" xml:space="preserve">
<style type="text/css">
	.st0{fill:#A7CC0D;}
	.st1{fill:#FFFFFF;}
	.st2{fill:#EFD7A0;}
	.st3{opacity:0.15;}
	.st4{fill:#939393;}
	.st5{fill:#00003F;}
	.st6{fill:#A7CCC5;}
</style>
<title>bob_entier</title>
<circle class="st0" cx="88.5" cy="88.5" r="88.5"/>
<path class="st1" d="M136.5,83c0,14-19.5,38-46,38s-50-18-50-38c0-17,21.5-48,48-48S136.5,62,136.5,83z"/>
<path class="st2" d="M142.3,18.2c0,0,15.7-8.2,17.7-18.2c9,0,0,35,0,35S150.6,34.5,142.3,18.2z"/>
<g class="st3">
	<path class="st4" d="M88.5,0.6c48.9,0,88.5,39.6,88.5,88.5c0,48.9-39.6,88.5-88.5,88.5"/>
	<path class="st4" d="M142.3,18.8c0,0,15.7-8.2,17.7-18.2c9,0,0,35,0,35S150.6,35,142.3,18.8z"/>
</g>
<path class="st2" d="M36,18.2c0,0-15.7-8.2-17.7-18.2c-9,0,0,35,0,35S27.7,34.5,36,18.2z"/>
<circle class="st2" cx="145.5" cy="109.9" r="4.5"/>
<circle class="st2" cx="153.1" cy="95.8" r="4.5"/>
<circle class="st2" cx="12" cy="80.2" r="2.2"/>
<circle class="st2" cx="21.9" cy="85.8" r="3.2"/>
<circle class="st2" cx="157.6" cy="105.4" r="2.2"/>
<path class="st5" d="M100.5,150.3c0,5-5.4,9-12,9s-12-4-12-9s5.4,0,12,0S100.5,145.4,100.5,150.3z"/>
<circle class="st6" cx="88.5" cy="95.8" r="23"/>
<circle class="st5" cx="88.5" cy="95.8" r="18.5"/>
<circle class="st1" cx="101.5" cy="86" r="5.5"/>
</svg>
