<?xml version="1.0" encoding="utf-8"?>
<!-- Generator: Adobe Illustrator 22.1.0, SVG Export Plug-In . SVG Version: 6.00 Build 0)  -->
<svg version="1.1" id="Calque_1" xmlns="http://www.w3.org/2000/svg" xmlns:xlink="http://www.w3.org/1999/xlink" x="0px" y="0px"
	 viewBox="0 0 94.1 94.1" style="enable-background:new 0 0 94.1 94.1;" xml:space="preserve">
<style type="text/css">
	.st0{fill:#C792DD;}
	.st1{fill:#FFFFFF;}
	.st2{fill:#A7CCC5;}
	.st3{fill:#00003F;}
</style>
<title>avatar</title>
<circle class="st0" cx="47.1" cy="47.1" r="47.1"/>
<path class="st1" d="M84.8,28.1c0,1.2-1.7,3.4-4.1,3.4s-4.4-1.6-4.4-3.4c0-1.5,1.9-4.3,4.3-4.3C82.9,24,84.7,25.8,84.8,28.1z"/>
<circle class="st2" cx="80.6" cy="27.9" r="2"/>
<circle class="st3" cx="80.6" cy="27.9" r="1.6"/>
<circle class="st1" cx="81.7" cy="27" r="0.5"/>
<path class="st1" d="M82.8,40.1c0,1.2-1.7,3.4-4.1,3.4s-4.4-1.6-4.4-3.4c0-1.5,1.9-4.3,4.3-4.3C80.9,36,82.7,37.8,82.8,40.1z"/>
<circle class="st2" cx="78.6" cy="39.9" r="2"/>
<circle class="st3" cx="78.6" cy="39.9" r="1.6"/>
<circle class="st1" cx="79.7" cy="39" r="0.5"/>
<path class="st1" d="M72.8,32.1c0,1.2-1.7,3.4-4.1,3.4s-4.4-1.6-4.4-3.4c0-1.5,1.9-4.3,4.3-4.3C70.9,28,72.7,29.8,72.8,32.1z"/>
<circle class="st2" cx="68.6" cy="31.9" r="2"/>
<circle class="st3" cx="68.6" cy="31.9" r="1.6"/>
<circle class="st1" cx="69.7" cy="31" r="0.5"/>
<path class="st1" d="M68.8,44.1c0,1.2-1.7,3.4-4.1,3.4s-4.4-1.6-4.4-3.4c0-1.5,1.9-4.3,4.3-4.3C66.9,40,68.7,41.8,68.8,44.1z"/>
<circle class="st2" cx="64.6" cy="43.9" r="2"/>
<circle class="st3" cx="64.6" cy="43.9" r="1.6"/>
<circle class="st1" cx="65.7" cy="43" r="0.5"/>
<path class="st1" d="M57.8,37.1c0,1.2-1.7,3.4-4.1,3.4s-4.4-1.6-4.4-3.4c0-1.5,1.9-4.3,4.3-4.3C55.9,33,57.7,34.8,57.8,37.1z"/>
<circle class="st2" cx="53.6" cy="36.9" r="2"/>
<circle class="st3" cx="53.6" cy="36.9" r="1.6"/>
<circle class="st1" cx="54.7" cy="36" r="0.5"/>
<path class="st1" d="M7.3,28.1c0,1.2,1.7,3.4,4.1,3.4s4.4-1.6,4.4-3.4c0-1.5-1.9-4.3-4.3-4.3C9.3,24,7.5,25.8,7.3,28.1z"/>
<circle class="st2" cx="11.6" cy="27.9" r="2"/>
<circle class="st3" cx="11.6" cy="27.9" r="1.6"/>
<circle class="st1" cx="10.4" cy="27" r="0.5"/>
<path class="st1" d="M9.3,40.1c0,1.2,1.7,3.4,4.1,3.4s4.4-1.6,4.4-3.4c0-1.5-1.9-4.3-4.3-4.3C11.3,36,9.5,37.8,9.3,40.1z"/>
<circle class="st2" cx="13.6" cy="39.9" r="2"/>
<circle class="st3" cx="13.6" cy="39.9" r="1.6"/>
<circle class="st1" cx="12.4" cy="39" r="0.5"/>
<path class="st1" d="M19.3,32.1c0,1.2,1.7,3.4,4.1,3.4s4.4-1.6,4.4-3.4c0-1.5-1.9-4.3-4.3-4.3C21.3,28,19.5,29.8,19.3,32.1z"/>
<circle class="st2" cx="23.6" cy="31.9" r="2"/>
<circle class="st3" cx="23.6" cy="31.9" r="1.6"/>
<circle class="st1" cx="22.4" cy="31" r="0.5"/>
<path class="st1" d="M23.3,44.1c0,1.2,1.7,3.4,4.1,3.4s4.4-1.6,4.4-3.4c0-1.5-1.9-4.3-4.3-4.3C25.3,40,23.5,41.8,23.3,44.1z"/>
<circle class="st2" cx="27.6" cy="43.9" r="2"/>
<circle class="st3" cx="27.6" cy="43.9" r="1.6"/>
<circle class="st1" cx="26.4" cy="43" r="0.5"/>
<path class="st1" d="M34.3,37.1c0,1.2,1.7,3.4,4.1,3.4s4.4-1.6,4.4-3.4c0-1.5-1.9-4.3-4.3-4.3C36.3,33,34.5,34.8,34.3,37.1z"/>
<circle class="st2" cx="38.6" cy="36.9" r="2"/>
<circle class="st3" cx="38.6" cy="36.9" r="1.6"/>
<circle class="st1" cx="37.4" cy="36" r="0.5"/>
</svg>
