<?xml version="1.0" encoding="utf-8"?>
<!-- Generator: Adobe Illustrator 22.1.0, SVG Export Plug-In . SVG Version: 6.00 Build 0)  -->
<svg version="1.1" id="Calque_1" xmlns="http://www.w3.org/2000/svg" xmlns:xlink="http://www.w3.org/1999/xlink" x="0px" y="0px"
	 viewBox="0 0 94.1 94.1" style="enable-background:new 0 0 94.1 94.1;" xml:space="preserve">
<style type="text/css">
	.st0{fill:#C7E598;}
	.st1{fill:#2A3F04;}
</style>
<title>Sans titre - 1</title>
<circle class="st0" cx="47.1" cy="47.1" r="47.1"/>
<path class="st0" d="M14.3,53.6c0,0,28-24.2,61,1.6C98.2,81,63.9,19.8,63.9,19.8l-31.8-9.7L11.8,35.9L14.3,53.6z"/>
<path class="st1" d="M73.3,54.7c-1.7,1.9-3.9,3.4-6.2,4.5c-2.3,1.1-4.8,1.9-7.3,2.5c-2.5,0.7-4.9,1.2-7.5,1.7
	c-2.6,0.4-5.2,0.4-7.8,0.1c-2.5-0.3-5.1-0.7-7.6-1.2c-1.3-0.3-2.5-0.7-3.7-1s-2.4-0.8-3.6-1.3c-2.4-0.9-4.7-2.1-6.9-3.5
	c-2.1-1.4-4.1-3-5.9-4.9c2.1,1.3,4.3,2.5,6.6,3.6c2.2,1,4.6,1.9,6.9,2.5c2.4,0.6,4.8,1.3,7.2,1.7s4.9,0.8,7.3,1
	c1.2,0.1,2.4,0.2,3.6,0.3c1.2,0,2.4-0.1,3.6-0.2c2.4-0.2,4.9-0.8,7.3-1.1C64.3,58.6,69.1,57.6,73.3,54.7z"/>
<circle class="st1" cx="73.3" cy="70.6" r="2"/>
<polygon class="st1" points="69.8,57.6 69.4,64.4 66.9,58.1 "/>
<polygon class="st1" points="65.8,58.5 65.1,67.3 62.8,58.8 "/>
<path class="st1" d="M61.3,60.1c0.5,1.4,0.7,3,0.8,4.5c0.1,1.4,0,2.9-0.2,4.3c-0.3-1.4-0.7-2.7-1.3-4c-0.5-1.2-1.2-2.4-2-3.4
	L61.3,60.1z"/>
<path class="st1" d="M56.8,60.9c0.7,1.6,1.1,3.3,1.2,5c0.1,1.6,0,3.2-0.3,4.8c-0.2-1.5-0.6-3.1-1.1-4.5c-0.5-1.3-1.3-2.6-2.2-3.6
	L56.8,60.9z"/>
<path class="st1" d="M52.7,61.7c0.6,3.5,0.6,7,0.1,10.5c-0.5-3.3-1.5-6.6-3-9.6L52.7,61.7z"/>
<path class="st1" d="M49.3,62.9c-1.6,2.5-2.7,5.4-3.1,8.3c-0.5-3.2-0.4-6.4,0.4-9.5L49.3,62.9z"/>
<path class="st1" d="M45.5,63.6c-1,0.7-1.9,1.6-2.5,2.7c-0.7,1.2-1.3,2.5-1.7,3.8c-0.1-1.5,0-2.9,0.2-4.4c0.3-1.6,0.9-3.1,1.9-4.4
	L45.5,63.6z"/>
<path class="st1" d="M41.2,62.9c-1.4,0.9-2.6,2.1-3.6,3.6c-1,1.5-1.9,3.1-2.6,4.8c0.2-1.9,0.7-3.7,1.3-5.5c0.6-1.9,1.7-3.7,3-5.2
	L41.2,62.9z"/>
<path class="st1" d="M34.5,61.3c0,0,0,0.1,0.1,0.2c0.1,0.2,0.3,0.3,0.4,0.3c0.2,0,0.3,0,0.5-0.1h0l0,0h-0.1l-0.2,0.1
	c-0.5,0.2-1,0.6-1.4,1c-0.9,1-1.7,2.1-2.2,3.4c0-1.4,0.4-2.9,0.9-4.2c0.3-0.7,0.8-1.4,1.3-2c0.1-0.1,0.2-0.2,0.3-0.2l0.1-0.2
	l0.1-0.1l0.2-0.1c0.5-0.2,1-0.3,1.5-0.1c0.5,0.2,0.9,0.5,1.1,1c0.2,0.4,0.3,0.8,0.2,1.2L34.5,61.3z"/>
<path class="st1" d="M31.1,61.3c0,0,0.4,0,0.4-0.1S31.2,61.2,31.1,61.3c-0.6,0.4-1,0.8-1.3,1.4c-0.7,1.3-1.5,2.5-2.3,3.7
	c0.4-1.4,0.7-2.8,1-4.2c0.2-0.8,0.5-1.6,0.9-2.3c0.3-0.5,0.7-0.9,1.3-1.1c0.4-0.2,0.8-0.2,1.2-0.2c0.4,0.1,0.8,0.2,1.2,0.5
	L31.1,61.3z"/>
<path class="st1" d="M27.8,60.5c0.2,0.1,0.3,0.1,0.5,0c0.1-0.1,0-0.1-0.1,0c-0.3,0.2-0.6,0.4-0.8,0.6c-0.6,0.6-1.2,1.2-1.7,1.9
	c-1.1,1.4-2,2.9-2.8,4.4c0.3-1.8,0.9-3.5,1.5-5.2c0.4-0.9,0.8-1.7,1.2-2.5c0.3-0.5,0.6-0.9,1-1.3c0.3-0.3,0.6-0.5,1-0.7
	c0.6-0.2,1.2-0.1,1.8,0.1L27.8,60.5z"/>
<path class="st1" d="M26.7,59.5c-0.5-0.1-0.9-0.1-1.4,0.1c-0.6,0.3-1.1,0.6-1.5,1.1c-1,1-1.8,2.1-2.3,3.4c0.1-1.5,0.5-2.9,1.1-4.3
	c0.3-0.7,0.8-1.4,1.4-2c0.7-0.7,1.6-1.2,2.5-1.3L26.7,59.5z"/>
<path class="st1" d="M21.2,56.1c0,0.3,0.1,0.2,0.1,0.1s0-0.1,0.1,0l0.1,0.1c0.1,0,0.1,0.1,0.2,0.1c0.1,0,0.2,0,0.4,0
	c0.2-0.1,0.1-0.1,0.1-0.1c-0.1,0-0.2,0.1-0.3,0.2c-0.2,0.2-0.5,0.3-0.7,0.5c-0.9,0.7-1.8,1.6-2.5,2.5c0.3-1.2,0.8-2.3,1.4-3.4
	c0.1-0.3,0.3-0.6,0.5-0.8c0.1-0.2,0.2-0.3,0.3-0.5c0.2-0.3,0.5-0.4,0.8-0.5c0.3-0.1,0.5-0.1,0.8,0c0.2,0,0.3,0.1,0.4,0.2
	c0.1,0.1,0.2,0.1,0.3,0.2c0.2,0.2,0.4,0.5,0.5,0.8c0.3,0.6,0.3,1.2,0.1,1.9L21.2,56.1z"/>
</svg>
