<svg id="Calque_1" data-name="Calque 1" xmlns="http://www.w3.org/2000/svg" viewBox="0 0 94 94"><defs><style>.cls-1{fill:#c4166d;}.cls-2{fill:#fff;}.cls-3{fill:#a7ccc5;}.cls-4{fill:#00003f;}</style></defs><title>avatar</title><circle class="cls-1" cx="46.73" cy="47.44" r="47.06"/><path class="cls-2" d="M31,36.13c0,3-4.22,8.23-10,8.23S10.2,40.46,10.2,36.13c0-3.68,4.66-10.4,10.4-10.4S31,31.58,31,36.13Z"/><circle class="cls-3" cx="20.6" cy="35.57" r="4.98"/><circle class="cls-4" cx="20.6" cy="35.57" r="4.01"/><circle class="cls-2" cx="23.41" cy="33.43" r="1.2"/><path class="cls-2" d="M58,48.13c0,3-4.22,8.23-10,8.23S37.2,52.46,37.2,48.13c0-3.68,4.66-10.4,10.4-10.4S58,43.58,58,48.13Z"/><circle class="cls-3" cx="47.6" cy="47.57" r="4.98"/><circle class="cls-4" cx="47.6" cy="47.57" r="4.01"/><circle class="cls-2" cx="50.41" cy="45.43" r="1.2"/><path class="cls-2" d="M84.5,36.63c0,3-4.22,8.23-10,8.23S63.7,41,63.7,36.63c0-3.68,4.66-10.4,10.4-10.4S84.5,32.08,84.5,36.63Z"/><circle class="cls-3" cx="74.1" cy="36.07" r="4.98"/><circle class="cls-4" cx="74.1" cy="36.07" r="4.01"/><circle class="cls-2" cx="76.91" cy="33.93" r="1.2"/></svg>