<?xml version="1.0" encoding="utf-8"?>
<!-- Generator: Adobe Illustrator 22.1.0, SVG Export Plug-In . SVG Version: 6.00 Build 0)  -->
<svg version="1.1" id="Calque_1" xmlns="http://www.w3.org/2000/svg" xmlns:xlink="http://www.w3.org/1999/xlink" x="0px" y="0px"
	 viewBox="0 0 94.1 94.1" style="enable-background:new 0 0 94.1 94.1;" xml:space="preserve">
<style type="text/css">
	.st0{fill:#C7E598;}
	.st1{fill:#FFFFFF;}
	.st2{fill:#C988E2;}
	.st3{fill:#00003F;}
	.st4{fill:#2A3F04;}
</style>
<title>avatar</title>
<circle class="st0" cx="47.1" cy="47.1" r="47.1"/>
<path class="st1" d="M73.2,47.2c0,8.3-11.5,22.4-27.1,22.4S16.6,59,16.6,47.2c0-10,12.7-28.3,28.3-28.3S73.2,34.9,73.2,47.2z"/>
<circle class="st2" cx="44.9" cy="53.3" r="13.6"/>
<circle class="st3" cx="44.9" cy="53.3" r="10.9"/>
<circle class="st1" cx="52.6" cy="47.5" r="3.3"/>
<path class="st0" d="M14.3,53.6c0,0,28-24.2,61,1.6C98.2,81,63.9,19.8,63.9,19.8l-31.8-9.7L11.8,35.9L14.3,53.6z"/>
<path class="st4" d="M16.9,51.2c1.7-1.9,3.8-3.4,6.2-4.5c2.3-1.1,4.8-1.9,7.3-2.5c2.5-0.7,4.9-1.2,7.5-1.6c2.6-0.4,5.2-0.4,7.8-0.1
	c2.5,0.3,5,0.7,7.5,1.2c1.3,0.3,2.5,0.7,3.7,1s2.4,0.8,3.6,1.3c2.4,0.9,4.7,2.1,6.9,3.5c2.1,1.4,4.1,3,5.8,4.9
	c-2.1-1.3-4.3-2.5-6.6-3.6c-2.2-1-4.5-1.9-6.9-2.5c-2.4-0.6-4.8-1.3-7.2-1.7s-4.9-0.8-7.3-1c-1.2-0.1-2.4-0.2-3.6-0.3
	c-1.2,0-2.4,0.1-3.6,0.2c-2.4,0.2-4.9,0.7-7.3,1.1C25.9,47.3,21.1,48.3,16.9,51.2z"/>
<circle class="st4" cx="73.3" cy="70.6" r="2"/>
<polygon class="st4" points="20.3,48.3 20.8,41.5 23.3,47.8 "/>
<polygon class="st4" points="24.4,47.3 25.1,38.6 27.4,47.1 "/>
<path class="st4" d="M28.9,45.8c-0.5-1.4-0.7-3-0.8-4.5c-0.1-1.4,0-2.9,0.2-4.3c0.3,1.4,0.7,2.7,1.3,4c0.5,1.2,1.2,2.4,2,3.4
	L28.9,45.8z"/>
<path class="st4" d="M33.3,45c-0.7-1.6-1.1-3.3-1.2-5c-0.1-1.6,0-3.2,0.3-4.8c0.2,1.5,0.6,3.1,1.1,4.5c0.5,1.3,1.2,2.6,2.2,3.6
	L33.3,45z"/>
<path class="st4" d="M37.4,44.1c-0.5-3.5-0.6-7-0.1-10.5c0.5,3.3,1.5,6.6,3,9.6L37.4,44.1z"/>
<path class="st4" d="M40.8,43c1.6-2.5,2.6-5.4,3.1-8.3c0.5,3.2,0.4,6.4-0.4,9.5L40.8,43z"/>
<path class="st4" d="M44.6,42.3c1-0.7,1.9-1.6,2.5-2.7c0.7-1.2,1.3-2.5,1.7-3.8c0.1,1.5,0,2.9-0.2,4.3c-0.3,1.6-0.9,3.1-1.8,4.4
	L44.6,42.3z"/>
<path class="st4" d="M48.9,43c1.4-0.9,2.6-2.1,3.6-3.5c1-1.5,1.9-3.1,2.6-4.8c-0.2,1.9-0.6,3.7-1.3,5.5c-0.6,1.9-1.7,3.7-3,5.2
	L48.9,43z"/>
<path class="st4" d="M55.6,44.6c-0.1-0.1-0.1-0.1-0.1-0.2c-0.1-0.2-0.3-0.3-0.4-0.3c-0.2,0-0.3,0-0.5,0.1h0l0,0h0.1l0.2-0.1
	c0.5-0.2,1-0.6,1.4-1c0.9-1,1.7-2.2,2.2-3.4c0,1.4-0.3,2.9-0.9,4.2c-0.3,0.7-0.8,1.4-1.3,2l-0.3,0.2l-0.1,0.1l-0.1,0.1l-0.2,0.1
	c-0.5,0.2-1,0.3-1.5,0.1c-0.5-0.2-0.9-0.5-1.1-1c-0.2-0.4-0.3-0.8-0.2-1.2L55.6,44.6z"/>
<path class="st4" d="M59,44.6c0,0-0.4,0-0.4,0.1S58.9,44.7,59,44.6c0.6-0.4,1-0.9,1.3-1.4c0.7-1.2,1.5-2.4,2.3-3.6
	c-0.4,1.4-0.7,2.8-1,4.2c-0.2,0.8-0.5,1.6-0.9,2.3c-0.3,0.5-0.7,0.9-1.3,1.1c-0.4,0.2-0.8,0.2-1.2,0.2c-0.4-0.1-0.8-0.2-1.2-0.4
	L59,44.6z"/>
<path class="st4" d="M62.3,45.4c-0.2-0.1-0.3-0.1-0.5,0c-0.1,0,0,0.1,0.1,0c0.3-0.2,0.6-0.4,0.8-0.6c0.6-0.6,1.2-1.2,1.7-1.9
	c1.1-1.4,2-2.9,2.8-4.5c-0.3,1.8-0.9,3.6-1.5,5.3c-0.3,0.9-0.8,1.7-1.2,2.5c-0.3,0.5-0.6,0.9-0.9,1.3c-0.3,0.3-0.6,0.5-1,0.7
	c-0.6,0.2-1.2,0.1-1.8-0.1L62.3,45.4z"/>
<path class="st4" d="M63.4,46.4c0.4,0.1,0.9,0.1,1.3-0.2c0.6-0.3,1.1-0.6,1.5-1.1c1-1,1.7-2.1,2.3-3.4c-0.1,1.5-0.5,2.9-1.1,4.3
	c-0.3,0.7-0.8,1.4-1.4,2c-0.7,0.7-1.6,1.2-2.5,1.3L63.4,46.4z"/>
<path class="st4" d="M68.9,49.8c0-0.3-0.1-0.2-0.1-0.1s0,0.1-0.1,0s-0.1-0.1-0.1-0.1c-0.1,0-0.1-0.1-0.2-0.1c-0.1,0-0.2,0-0.4,0
	c-0.2,0.1-0.1,0.1-0.1,0.1c0.1,0,0.2-0.1,0.3-0.2c0.2-0.2,0.5-0.3,0.7-0.5c0.9-0.7,1.7-1.6,2.5-2.5c-0.3,1.2-0.8,2.3-1.3,3.4
	c-0.2,0.3-0.3,0.5-0.5,0.8c-0.1,0.2-0.2,0.3-0.3,0.5c-0.2,0.2-0.5,0.4-0.8,0.5c-0.3,0.1-0.5,0.1-0.8,0c-0.1,0-0.3-0.1-0.4-0.2
	c-0.1-0.1-0.2-0.1-0.3-0.2c-0.2-0.2-0.4-0.5-0.5-0.8c-0.3-0.6-0.3-1.3-0.1-1.9L68.9,49.8z"/>
</svg>
