<?xml version="1.0" encoding="utf-8"?>
<!-- Generator: Adobe Illustrator 22.1.0, SVG Export Plug-In . SVG Version: 6.00 Build 0)  -->
<svg version="1.1" id="Calque_1" xmlns="http://www.w3.org/2000/svg" xmlns:xlink="http://www.w3.org/1999/xlink" x="0px" y="0px"
	 viewBox="0 0 97 97" style="enable-background:new 0 0 97 97;" xml:space="preserve">
<style type="text/css">
	.st0{fill:#E84C07;}
	.st1{fill:#FFFFFF;}
	.st2{fill:#0F931C;}
	.st3{fill:#00003F;}
	.st4{fill:#96360F;}
</style>
<title>avatar</title>
<circle class="st0" cx="49.7" cy="50.4" r="47.1"/>
<path class="st1" d="M69.8,51.3c0,4.5-9,12.1-21.3,12.1s-23.2-5.7-23.2-12.1c0-5.4,10-15.3,22.2-15.3S69.8,44.6,69.8,51.3z"/>
<circle class="st2" cx="47.5" cy="50.5" r="10.7"/>
<circle class="st3" cx="47.5" cy="50.5" r="8.6"/>
<circle class="st1" cx="53.5" cy="45.9" r="2.6"/>
<path class="st0" d="M22,47c0,0,25-10,52-1s-8-15-8-15l-35-5L22,47z"/>
<path class="st0" d="M76.2,55c0,0-25,10-52,1s8,15,8,15l35,5L76.2,55z"/>
<path class="st4" d="M22.5,40.5c0,0,27-9,49-1c9-1,2-8,2-8s-13-13-27-10s-27,10-27,12S16.5,39.5,22.5,40.5z"/>
</svg>
