<?xml version="1.0" encoding="utf-8"?>
<!-- Generator: Adobe Illustrator 22.1.0, SVG Export Plug-In . SVG Version: 6.00 Build 0)  -->
<svg version="1.1" id="Calque_1" xmlns="http://www.w3.org/2000/svg" xmlns:xlink="http://www.w3.org/1999/xlink" x="0px" y="0px"
	 viewBox="0 0 94.1 94.1" style="enable-background:new 0 0 94.1 94.1;" xml:space="preserve">
<style type="text/css">
	.st0{fill:#E08B10;}
	.st1{fill:#D17E11;}
	.st2{fill:#492C05;}
	.st3{fill:#E2A047;}
</style>
<title>Sans titre - 1</title>
<circle class="st0" cx="47.8" cy="47.1" r="47.1"/>
<path class="st1" d="M67.9,47.3c0,6.5-9,17.6-21.3,17.6s-23.2-8.3-23.2-17.6c0-7.9,10-22.3,22.2-22.3S67.9,37.6,67.9,47.3z"/>
<path class="st2" d="M68,44.6c-0.8,5.2-3.2,9.9-6.7,13.8c-1.8,1.9-3.9,3.5-6.3,4.8c-2.4,1.2-4.9,2-7.6,2.3c-2.7,0.3-5.3,0.1-7.9-0.5
	c-2.6-0.7-5-1.9-7.1-3.5c-4.2-3.3-6.8-8-8.6-12.7c2.6,4.4,5.5,8.6,9.6,11.5c4.1,2.8,9,3.9,13.9,3.3c4.9-0.6,9.5-2.8,13-6.2
	C63.8,53.8,66.5,49.4,68,44.6z"/>
<path class="st2" d="M27.2,54.9c0-0.4-0.3-0.7-0.7-0.8c0,0-0.1,0-0.1,0c-0.4,0.1-0.9,0.2-1.3,0.3c-0.9,0.3-1.7,0.7-2.5,1.1
	c-0.8,0.5-1.6,1-2.3,1.7c-0.8,0.7-1.5,1.4-2.1,2.2c0-1.1,0.3-2.3,1-3.2c0.6-1,1.5-1.8,2.5-2.4c1-0.6,2.1-0.9,3.3-1
	c0.6,0,1.3,0.1,1.8,0.3C27.3,53.6,27.7,54.5,27.2,54.9z"/>
<path class="st2" d="M30.7,60.6c0-0.4-0.3-0.7-0.6-0.8c-0.1,0-0.3,0-0.4,0c0,0-0.1,0-0.1,0.1L29.3,60c-0.5,0.4-0.9,0.9-1.3,1.5
	c-0.5,0.7-0.9,1.3-1.4,2.1s-0.9,1.4-1.5,2.2c-0.2-0.9-0.2-1.9,0-2.8c0.2-0.9,0.6-1.8,1.2-2.6c0.3-0.4,0.6-0.8,1-1.1
	c0.4-0.4,1-0.7,1.6-0.8c0.2,0,0.3,0,0.5,0c0.2,0,0.4,0.1,0.5,0.1c0.3,0.1,0.6,0.3,0.8,0.6c0.2,0.2,0.3,0.5,0.3,0.8
	C31,60.2,30.9,60.5,30.7,60.6z"/>
<path class="st2" d="M36.4,63.5c-0.6,0.2-1.2,0.6-1.5,1.2c-0.3,0.5-0.7,1-0.9,1.5c-0.3,0.6-0.5,1.1-0.8,1.8s-0.5,1.3-0.9,2
	c-0.4-0.7-0.7-1.5-0.6-2.3c0-0.8,0.2-1.6,0.5-2.3c0.4-0.8,1-1.4,1.8-1.8C34.7,62.9,35.7,62.9,36.4,63.5z"/>
<path class="st2" d="M44.5,64.8c0,0.8-0.1,1.4-0.2,2l-0.3,1.7c-0.1,0.6-0.2,1.1-0.3,1.7c-0.1,0.7-0.3,1.3-0.5,1.9
	c-0.5-0.5-0.9-1.1-1.1-1.8c-0.2-0.7-0.2-1.4-0.1-2.1c0.1-0.7,0.4-1.4,0.8-2C43.3,65.6,43.8,65.1,44.5,64.8z"/>
<path class="st2" d="M49.3,64.6c0.7-0.5,1.7-0.6,2.5-0.4c0.9,0.2,1.6,0.7,2.2,1.4c0.5,0.6,0.9,1.4,1.2,2.2c0.2,0.8,0.3,1.6,0.2,2.4
	c-0.6-0.5-1.1-1-1.6-1.6c-0.4-0.6-0.8-1.1-1.3-1.6c-0.4-0.5-0.9-0.9-1.3-1.3C50.6,65.3,50,64.9,49.3,64.6z"/>
<path class="st2" d="M57.1,61.4c0.5-0.7,1.3-1.1,2.2-1.3c1.7-0.3,3.5,0.4,4.6,1.8c0.5,0.7,0.8,1.5,0.8,2.4c-0.6-0.5-1.2-0.9-1.8-1.2
	c-0.5-0.3-1.1-0.6-1.7-0.8c-0.6-0.2-1.2-0.4-1.8-0.6C58.5,61.5,57.8,61.4,57.1,61.4z"/>
<path class="st2" d="M64.2,52.5c0.4-0.4,0.9-0.7,1.4-0.7c0.5-0.1,1,0,1.5,0.1c0.5,0.2,0.9,0.5,1.3,0.8c0.4,0.4,0.6,0.9,0.7,1.5
	c-0.5,0-1,0-1.5-0.1c-0.4-0.1-0.8-0.2-1.1-0.3c-0.4-0.1-0.7-0.3-1.1-0.5C65,53.1,64.5,52.8,64.2,52.5z"/>
<ellipse class="st3" cx="74.6" cy="66.6" rx="3" ry="1.5"/>
<ellipse class="st3" cx="67.1" cy="70.1" rx="3" ry="1.5"/>
<circle class="st3" cx="73.6" cy="60.1" r="1.5"/>
</svg>
