<?xml version="1.0" encoding="utf-8"?>
<!-- Generator: Adobe Illustrator 22.1.0, SVG Export Plug-In . SVG Version: 6.00 Build 0)  -->
<svg version="1.1" id="Calque_1" xmlns="http://www.w3.org/2000/svg" xmlns:xlink="http://www.w3.org/1999/xlink" x="0px" y="0px"
	 viewBox="0 0 94.1 94.1" style="enable-background:new 0 0 94.1 94.1;" xml:space="preserve">
<style type="text/css">
	.st0{fill:#C792DD;}
	.st1{fill:#AA78C1;}
</style>
<title>Sans titre - 1</title>
<circle class="st0" cx="47.1" cy="47.1" r="47.1"/>
<path class="st1" d="M69.9,26.8c0,1.7-2.3,4.5-5.5,4.5c-3.2,0-6-2.2-6-4.5c0-2,2.6-5.7,5.7-5.7C67.3,21.1,69.9,24.3,69.9,26.8z"/>
<path class="st1" d="M83.3,37.6c0,1.7-2.3,4.5-5.5,4.5s-6-2.2-6-4.5c0-2,2.6-5.7,5.7-5.7C80.7,31.8,83.3,35.1,83.3,37.6z"/>
<path class="st1" d="M64.5,43c0,1.7-2.3,4.5-5.5,4.5s-6-2.1-6-4.5c0-2,2.6-5.7,5.7-5.7S64.5,40.5,64.5,43z"/>
<path class="st1" d="M25.5,25.4c0,1.7,2.3,4.5,5.5,4.5s6-2.1,6-4.5c0-2-2.6-5.7-5.7-5.7S25.5,22.9,25.5,25.4z"/>
<path class="st1" d="M9.3,37.6c0,1.7,2.3,4.5,5.5,4.5s6-2.2,6-4.5c0-2-2.6-5.7-5.7-5.7S9.3,35.1,9.3,37.6z"/>
<path class="st1" d="M28.2,43c0,1.7,2.3,4.5,5.5,4.5s6-2.1,6-4.5c0-2-2.6-5.7-5.7-5.7S28.2,40.5,28.2,43z"/>
</svg>
