<?xml version="1.0" encoding="utf-8"?>
<!-- Generator: Adobe Illustrator 22.1.0, SVG Export Plug-In . SVG Version: 6.00 Build 0)  -->
<svg version="1.1" id="Calque_1" xmlns="http://www.w3.org/2000/svg" xmlns:xlink="http://www.w3.org/1999/xlink" x="0px" y="0px"
	 viewBox="0 0 94.1 94.1" style="enable-background:new 0 0 94.1 94.1;" xml:space="preserve">
<style type="text/css">
	.st0{fill:#E84C07;}
	.st1{fill:#C9400A;}
	.st2{fill:#96360F;}
</style>
<title>Sans titre - 1</title>
<circle class="st0" cx="47.1" cy="47.1" r="47.1"/>
<path class="st1" d="M67.1,47.9c0,4.5-9,12.1-21.3,12.1s-23.2-5.7-23.2-12.1c0-5.4,10-15.3,22.2-15.3S67.1,41.2,67.1,47.9z"/>
<path class="st0" d="M19.3,43.6c0,0,25-10,52-1s-8-15-8-15l-35-5L19.3,43.6z"/>
<path class="st0" d="M73.6,51.6c0,0-25,10-52,1s8,15,8,15l35,5L73.6,51.6z"/>
<path class="st2" d="M19.8,37.1c0,0,27-9,49-1c9-1,2-8,2-8s-13-13-27-10s-27,10-27,12S13.8,36.1,19.8,37.1z"/>
</svg>
