<svg id="Calque_1" data-name="Calque 1" xmlns="http://www.w3.org/2000/svg" viewBox="0 0 97 97"><defs><style>.cls-1{fill:#e08b10;}.cls-2{fill:#fff;}.cls-3{fill:#322ad8;}.cls-4{fill:#00003f;}.cls-5{fill:#492c05;}.cls-6{fill:#e2a047;}</style></defs><title>avatar</title><circle class="cls-1" cx="49.73" cy="50.44" r="47.06"/><path class="cls-2" d="M69.79,50.71c0,6.49-9,17.62-21.33,17.62S25.28,60,25.28,50.71c0-7.88,10-22.25,22.25-22.25S69.79,41,69.79,50.71Z"/><circle class="cls-3" cx="47.53" cy="49.52" r="10.66"/><circle class="cls-4" cx="47.53" cy="49.52" r="8.58"/><circle class="cls-2" cx="53.55" cy="44.94" r="2.57"/><path class="cls-5" d="M25.11,49.57a26.23,26.23,0,0,1,6.75-13.76A23.51,23.51,0,0,1,38.14,31a22.73,22.73,0,0,1,7.59-2.31,21.83,21.83,0,0,1,7.93.51,19,19,0,0,1,7.11,3.52c4.18,3.32,6.81,8,8.63,12.71-2.57-4.38-5.52-8.63-9.56-11.46A19.81,19.81,0,0,0,46,30.71a22.63,22.63,0,0,0-13,6.2A30.81,30.81,0,0,0,25.11,49.57Z"/><path class="cls-5" d="M65.94,39.27a.74.74,0,0,0,.82.75A4.73,4.73,0,0,0,68,39.71a14,14,0,0,0,2.56-1.14,16.35,16.35,0,0,0,2.28-1.66A21.7,21.7,0,0,0,75,34.69a5.6,5.6,0,0,1-.91,3.23,7.34,7.34,0,0,1-2.49,2.37,7,7,0,0,1-3.31,1A3.87,3.87,0,0,1,66.46,41C65.8,40.65,65.46,39.7,65.94,39.27Z"/><path class="cls-5" d="M62.41,33.61a.83.83,0,0,0,.65.8.76.76,0,0,0,.41,0l.13-.06.17-.09a5.91,5.91,0,0,0,1.31-1.56c.45-.67.9-1.35,1.35-2.06s.91-1.44,1.48-2.23a5.89,5.89,0,0,1,0,2.83,7.5,7.5,0,0,1-1.17,2.59,6.26,6.26,0,0,1-1,1.14,3.18,3.18,0,0,1-1.56.8,2,2,0,0,1-.49,0,1.78,1.78,0,0,1-.52-.11,1.84,1.84,0,0,1-.76-.57,1.54,1.54,0,0,1-.32-.82A.83.83,0,0,1,62.41,33.61Z"/><path class="cls-5" d="M56.67,30.75a3.12,3.12,0,0,0,1.54-1.16,9.42,9.42,0,0,0,.91-1.49c.26-.54.53-1.14.79-1.74s.53-1.25.9-2a4.11,4.11,0,0,1,.65,2.29A5.5,5.5,0,0,1,60.91,29a4.27,4.27,0,0,1-1.75,1.85A2.21,2.21,0,0,1,56.67,30.75Z"/><path class="cls-5" d="M48.59,29.36c0-.76.11-1.38.17-2L49,25.66c.09-.56.19-1.12.3-1.71s.24-1.21.46-1.94a3.6,3.6,0,0,1,1.11,1.85A5,5,0,0,1,50.22,28,3.68,3.68,0,0,1,48.59,29.36Z"/><path class="cls-5" d="M43.82,29.56a2.88,2.88,0,0,1-2.51.37,4.6,4.6,0,0,1-2.2-1.41A5.64,5.64,0,0,1,38,26.33a5.88,5.88,0,0,1-.17-2.41,11.27,11.27,0,0,1,1.58,1.72c.44.57.84,1.09,1.26,1.57A9.71,9.71,0,0,0,42,28.51,6.43,6.43,0,0,0,43.82,29.56Z"/><path class="cls-5" d="M36.08,32.84a3.39,3.39,0,0,1-2.16,1.26,4.82,4.82,0,0,1-4.61-1.77,3.36,3.36,0,0,1-.75-2.39,13.87,13.87,0,0,0,1.81,1.23,14.08,14.08,0,0,0,1.72.81,12.84,12.84,0,0,0,1.82.55A13.61,13.61,0,0,0,36.08,32.84Z"/><path class="cls-5" d="M29,41.71a2.39,2.39,0,0,1-1.43.75A3.17,3.17,0,0,1,26,42.32a3.09,3.09,0,0,1-1.28-.83A2.39,2.39,0,0,1,24.05,40a8.45,8.45,0,0,1,1.47.12,7.46,7.46,0,0,1,1.13.29,8.24,8.24,0,0,1,1.07.48A7.84,7.84,0,0,1,29,41.71Z"/><ellipse class="cls-6" cx="76.5" cy="70" rx="3" ry="1.5"/><ellipse class="cls-6" cx="69" cy="73.5" rx="3" ry="1.5"/><circle class="cls-6" cx="75.5" cy="63.5" r="1.5"/></svg>