<?xml version="1.0" encoding="utf-8"?>
<!-- Generator: Adobe Illustrator 22.1.0, SVG Export Plug-In . SVG Version: 6.00 Build 0)  -->
<svg version="1.1" id="Calque_1" xmlns="http://www.w3.org/2000/svg" xmlns:xlink="http://www.w3.org/1999/xlink" x="0px" y="0px"
	 viewBox="0 0 94.1 94.1" style="enable-background:new 0 0 94.1 94.1;" xml:space="preserve">
<style type="text/css">
	.st0{fill:#C4166D;}
	.st1{fill:#A31362;}
</style>
<title>Sans titre - 1</title>
<circle class="st0" cx="47.1" cy="47.1" r="47.1"/>
<path class="st1" d="M31.3,35.8c0,3-4.2,8.2-10,8.2s-10.8-3.9-10.8-8.2c0-3.7,4.7-10.4,10.4-10.4S31.3,31.2,31.3,35.8z"/>
<path class="st1" d="M58.3,47.8c0,3-4.2,8.2-10,8.2s-10.8-3.9-10.8-8.2c0-3.7,4.7-10.4,10.4-10.4S58.3,43.2,58.3,47.8z"/>
<path class="st1" d="M84.8,36.3c0,3-4.2,8.2-10,8.2S64,40.6,64,36.3c0-3.7,4.7-10.4,10.4-10.4S84.8,31.7,84.8,36.3z"/>
</svg>
