<svg id="Calque_1" data-name="Calque 1" xmlns="http://www.w3.org/2000/svg" viewBox="0 0 93.13 197.77"><defs><style>.cls-1,.cls-2{fill:none;stroke:#eee;stroke-miterlimit:10;}.cls-1{stroke-width:3px;}.cls-2{stroke-width:2px;}</style></defs><title>home</title><path class="cls-1" d="M19.45,169.3H9.94a5.48,5.48,0,0,1-5.6-5.36V33.65S2,2.1,38.43,2.1c4.65,0,14.66,3.49,18.14,4.35" transform="translate(-2.8 -0.6)"/><path class="cls-1" d="M94.37,39.28V178.91c0,3.17-2.77,6-6.18,6.38-21,2.55-41.92,9-62.88,11.53a5.4,5.4,0,0,1-6.18-5.46V43.46c0-.6-2.61-34.36,37.62-36.9C97.78,4,94.37,39.91,94.37,39.28Z" transform="translate(-2.8 -0.6)"/><path class="cls-1" d="M33,115.06c0,2-1.39,3.82-3.1,4s-3.09-1.4-3.09-3.44a3.78,3.78,0,0,1,3.09-3.93C31.62,111.52,33,113,33,115.06Z" transform="translate(-2.8 -0.6)"/><path class="cls-1" d="M79.94,173.54c-14.59,2.24-29.18,5.87-43.78,8.27a5.27,5.27,0,0,1-6.25-5.43v-37.8a7.3,7.3,0,0,1,6.25-7.09c14.6-1.84,29.19-4.92,43.78-6.61a5.46,5.46,0,0,1,6.25,5.47v36.21A7.4,7.4,0,0,1,79.94,173.54Z" transform="translate(-2.8 -0.6)"/><path class="cls-2" d="M60.41,52a3.4,3.4,0,0,1-2.73,3.47c-1.5.17-2.72-1.12-2.72-2.89a3.39,3.39,0,0,1,2.72-3.47A2.63,2.63,0,0,1,60.41,52Z" transform="translate(-2.8 -0.6)"/></svg>