<svg id="Calque_1" data-name="Calque 1" xmlns="http://www.w3.org/2000/svg" viewBox="0 0 94.01 76.76"><defs><style>.cls-1{fill:none;stroke:#00003f;stroke-miterlimit:10;stroke-width:2px;}</style></defs><title>invite_selectionne</title><path class="cls-1" d="M42.5,52C42.5,40,56,30.27,68,30.27a27.38,27.38,0,0,1,16,5.56C83.37,16.52,61.56,1,42.15,1,22.46,1,1,17,1,36.65,1,48.16,8.35,58.4,18.39,64.92h0C13.27,73.33,7,67.5,7,72.3c14,7.79,35.15,0,35.15,0a42.3,42.3,0,0,0,12.9-2.13C48,66.3,42.5,59.59,42.5,52Z"/><path class="cls-1" d="M55.05,70.17A27.44,27.44,0,0,0,68,73.65s12.87,4.75,21.39,0c0-2.92-3.82.63-6.93-4.49h0C88.54,65.2,93,59,93,52c0-6.4-3.74-12.16-9-16.13"/><path class="cls-1" d="M84,36.65c0-.28,0-.55,0-.82a27.38,27.38,0,0,0-16-5.56C56,30.27,42.5,40,42.5,52"/></svg>